<?xml version="1.0" encoding="UTF-8" standalone="no"?>
<!DOCTYPE svg PUBLIC "-//W3C//DTD SVG 1.1//EN" "http://www.w3.org/Graphics/SVG/1.1/DTD/svg11.dtd">
<svg width="100%" height="100%" viewBox="0 0 4000 4000" version="1.1" xmlns="http://www.w3.org/2000/svg" xmlns:xlink="http://www.w3.org/1999/xlink" xml:space="preserve" xmlns:serif="http://www.serif.com/" style="fill-rule:evenodd;clip-rule:evenodd;stroke-linecap:round;stroke-linejoin:round;stroke-miterlimit:1.5;">
    <g transform="matrix(1.382979,0,0,1.382979,-709.255319,-799.148936)">
        <circle cx="1959" cy="2024" r="1410" style="fill:rgb(3,101,140);"/>
    </g>
    <g transform="matrix(1.18492,0,0,1.18492,-374.091549,-909.082143)">
        <g transform="matrix(0.814359,0,0,0.798716,374.870555,1056.426533)">
            <path d="M3398,1751.135C3398,2188.879 3049.434,2544.271 2620.099,2544.271L1379.901,2544.271C950.566,2544.271 602,2188.879 602,1751.135C602,1313.392 950.566,958 1379.901,958L2620.099,958C3049.434,958 3398,1313.392 3398,1751.135Z" style="fill:rgb(148,206,242);stroke:rgb(3,101,140);stroke-width:8.72px;"/>
        </g>
        <g transform="matrix(0.843939,0,0,0.843939,315.710332,1020.699025)">
            <path d="M1996.376,2450.271L1401.635,2450.271C987.348,2450.271 651,2113.922 651,1699.635C651,1378.162 853.524,1103.618 1137.835,996.739C1052.347,912.085 1009.603,819.581 1009.603,719.225C1009.603,621.573 1055.239,542.785 1146.511,482.861C1237.782,422.938 1350.416,376.886 1484.411,344.705C1618.406,312.524 1764.052,290.885 1921.351,279.788C2078.649,268.692 2223.325,263.143 2355.378,263.143L2547.631,263.143C2613.658,263.143 2677.742,265.362 2739.885,269.801C2790.376,274.24 2835.041,283.117 2873.88,296.434C2912.719,309.75 2932.139,334.163 2932.139,369.673C2932.139,394.086 2920.487,413.506 2897.183,427.932C2873.88,442.358 2844.751,454.01 2809.795,462.887C2774.84,471.765 2736.972,477.868 2696.191,481.197C2655.41,484.526 2617.542,488.41 2582.587,492.849C2532.096,499.507 2465.098,508.384 2381.594,519.481C2298.09,530.578 2215.557,546.114 2133.995,566.088C2052.433,586.063 1982.522,611.031 1924.264,640.992C1866.005,670.954 1836.876,707.019 1836.876,749.187C1836.876,780.258 1867.947,813.549 1930.09,849.059C1985.321,880.619 2052.824,913.933 2132.599,949L2598.365,949C3012.652,949 3349,1285.348 3349,1699.635C3349,2052.753 3104.642,2349.249 2775.942,2429.105C2802.795,2462.355 2824.76,2496.621 2841.838,2531.902C2867.083,2584.057 2879.706,2635.658 2879.706,2686.703C2879.706,2784.356 2825.331,2862.589 2716.582,2921.403C2607.832,2980.216 2475.779,3025.159 2320.423,3056.23C2165.066,3087.301 2001.942,3108.385 1831.05,3119.482C1660.158,3130.579 1512.569,3136.127 1388.284,3136.127L1341.677,3136.127C1310.606,3136.127 1275.651,3134.463 1236.812,3131.134C1197.972,3127.805 1161.075,3121.701 1126.12,3112.824C1091.165,3103.946 1061.065,3092.295 1035.819,3077.869C1010.574,3063.443 997.951,3044.023 997.951,3019.61C997.951,2981.881 1024.167,2951.919 1076.6,2929.725C1129.033,2907.532 1182.437,2890.886 1236.812,2879.789C1287.302,2868.692 1362.068,2856.486 1461.107,2843.17C1560.147,2829.853 1659.187,2813.208 1758.227,2793.234C1857.266,2773.259 1942.712,2748.291 2014.565,2718.33C2086.417,2688.368 2122.343,2652.303 2122.343,2610.135C2122.343,2556.87 2092.243,2510.818 2032.042,2471.979C2020.673,2464.644 2008.784,2457.408 1996.376,2450.271Z" style="fill:rgb(148,206,242);stroke:rgb(3,101,140);stroke-width:10.42px;stroke-linecap:butt;stroke-miterlimit:2;"/>
        </g>
        <g>
            <circle cx="1443" cy="2244" r="148" style="fill:rgb(3,101,140);"/>
            <g transform="matrix(1,0,0,1,-38,21)">
                <circle cx="1427.5" cy="2251.5" r="42.5" style="fill:rgb(148,206,242);"/>
            </g>
        </g>
        <g transform="matrix(1,0,0,1,1162,8.5)">
            <circle cx="1443" cy="2244" r="148" style="fill:rgb(3,101,140);"/>
            <g transform="matrix(1,0,0,1,-38,21)">
                <circle cx="1427.5" cy="2251.5" r="42.5" style="fill:rgb(148,206,242);"/>
            </g>
        </g>
        <path d="M1533,2616C2345.064,3257.474 2457,2616 2457,2616" style="fill:none;stroke:rgb(3,101,140);stroke-width:19.34px;"/>
    </g>
</svg>
